<svg id="Outline" height="512" viewBox="0 0 512 512" width="512" xmlns="http://www.w3.org/2000/svg"><path d="m304 152.455v-40.455a8 8 0 0 0 -8-8h-8v-16h30.7l22.768 7.589a7.991 7.991 0 0 0 10.119-5.059l8-24a8 8 0 0 0 -4.011-9.685l-32-16a7.994 7.994 0 0 0 -3.576-.845h-33.013a32 32 0 0 0 -62.987 8v56h-8a8 8 0 0 0 -8 8v40.455a72.1 72.1 0 0 0 -64 71.545v232a40.045 40.045 0 0 0 40 40h144a40.045 40.045 0 0 0 40-40v-232a72.1 72.1 0 0 0 -64-71.545zm38.216-84.4-3.276 9.829-16.41-5.47a8 8 0 0 0 -2.53-.414h-32v-16h30.111zm-102.216-20.055a16 16 0 0 1 32 0v56h-32zm48 72v32h-64v-32zm64 336a24.027 24.027 0 0 1 -24 24h-144a24.027 24.027 0 0 1 -24-24v-232a56.064 56.064 0 0 1 56-56h80a56.064 56.064 0 0 1 56 56z"/><path d="m272 232h-72a8 8 0 0 0 -8 8v200a8 8 0 0 0 8 8h112a8 8 0 0 0 8-8v-160a48.055 48.055 0 0 0 -48-48zm32 200h-96v-184h64a32.036 32.036 0 0 1 32 32z"/><path d="m256 272a32 32 0 1 0 32 32 32.036 32.036 0 0 0 -32-32zm0 48a16 16 0 1 1 16-16 16.019 16.019 0 0 1 -16 16z"/><path d="m248 352h16v16h-16z"/><path d="m232 384h48v16h-48z"/></svg>