<svg id="Outline" height="512" viewBox="0 0 512 512" width="512" xmlns="http://www.w3.org/2000/svg"><path d="m334.3 384.846a23.985 23.985 0 0 0 -22.3-32.846h-35.056l-4.2-8.4a42.685 42.685 0 0 0 -73.7-4.587l-14.578 21.867a15.97 15.97 0 0 1 -13.31 7.12h-155.156v16h155.156a31.933 31.933 0 0 0 26.625-14.25l14.578-21.867a26.687 26.687 0 0 1 46.073 2.868l.624 1.249h-19.056v16h72a8 8 0 0 1 0 16h-32v16h48a8 8 0 0 1 0 16h-56v16h32a8 8 0 0 1 0 16h-40v16h16a8 8 0 0 1 0 16h-28.223a144.292 144.292 0 0 1 -64.2-15.155 7.994 7.994 0 0 0 -3.577-.845h-168v16h166.138a160.41 160.41 0 0 0 69.639 16h28.223a23.992 23.992 0 0 0 22.624-32h1.376a23.992 23.992 0 0 0 22.624-32h1.376a24 24 0 0 0 6.3-47.154z"/><path d="m64 432h16v16h-16z"/><path d="m128 400h16v16h-16z"/><path d="m184 432h16v16h-16z"/><path d="m224 392h16v16h-16z"/><path d="m496 288h-88a8 8 0 0 0 -8 8v8h-11.156a15.97 15.97 0 0 1 -13.313-7.125l-14.578-21.868c-.3-.457-.632-.894-.953-1.338v-97.669a32.036 32.036 0 0 0 -32-32h-24.242c-4.158-71.281-63.458-128-135.758-128-74.99 0-136 61.009-136 136s61.01 136 136 136c72.3 0 131.6-56.719 135.758-128h24.242a16.019 16.019 0 0 1 16 16v84.254a42.67 42.67 0 0 0 -54.79 15.855l13.58 8.46a26.673 26.673 0 0 1 41.21-5.042v48.473h16v-25.578l2.219 3.328a31.933 31.933 0 0 0 26.625 14.25h11.156v80h-24a7.994 7.994 0 0 0 -3.578.845 144.168 144.168 0 0 1 -15.155 6.517l5.466 15.037a159.947 159.947 0 0 0 15.129-6.4h22.138v8a8 8 0 0 0 8 8h88v-15.999h-80v-112h80zm-328-16a120 120 0 1 1 119.727-128h-39.727v16h39.727a120.151 120.151 0 0 1 -119.727 112z"/><path d="m432 384h16v16h-16z"/><path d="m248 304h72v-16h-72a24.027 24.027 0 0 0 -24 24h16a8.009 8.009 0 0 1 8-8z"/><path d="m160 176h32v16h-32z"/><path d="m344 344h16v16h-16z"/><path d="m215.1 156.212 11.81-11.81-11.31-11.314-11.81 11.81a47.723 47.723 0 0 0 -27.79-8.898h-8v-16h-16v16h-8a47.773 47.773 0 0 0 -16.619 2.969l-10.783-15.1a12.567 12.567 0 0 1 10.226-19.869h57.176a24 24 0 0 0 0-48h-32v16h32a8 8 0 0 1 0 16h-57.176a28.567 28.567 0 0 0 -23.246 45.173l9.877 13.827a48.021 48.021 0 0 0 -16.776 29h-16.679v16h16.679a47.741 47.741 0 0 0 8.219 19.788l-11.81 11.812 11.312 11.312 11.81-11.81a47.723 47.723 0 0 0 27.79 8.898h8v16h16v-16h8a47.723 47.723 0 0 0 27.788-8.9l11.81 11.81 11.314-11.31-11.81-11.81a47.741 47.741 0 0 0 8.219-19.79h16.679v-16h-16.679a47.741 47.741 0 0 0 -8.221-19.788zm-39.1 59.788h-32a31.981 31.981 0 0 1 -21.211-55.932l14.7 20.582 13.02-9.3-13.3-18.618a31.978 31.978 0 0 1 6.791-.732h32a32 32 0 0 1 0 64z"/><path d="m64 128h16v16h-16z"/><path d="m232 88h16v16h-16z"/></svg>