<svg id="Outline" height="512" viewBox="0 0 512 512" width="512" xmlns="http://www.w3.org/2000/svg"><path d="m453.255 167.282a64 64 0 0 0 -90.51-90.509l-72.4 72.4 11.314 11.313 72.4-72.4a48 48 0 0 1 67.882 67.883l-156.111 156.112a138.54 138.54 0 0 1 -82.36 39.584 8 8 0 0 0 -4.511 2.043l-83.059 75.841-15.419-15.419 75.839-83.062a8 8 0 0 0 2.043-4.51 138.273 138.273 0 0 1 25.494-65.858l-12.947-9.4a154.328 154.328 0 0 0 -28.136 70.875l-106.274 116.397a24.743 24.743 0 0 0 34.958 34.957l116.4-106.276a154.613 154.613 0 0 0 89.289-43.859zm-372.588 294.431a8.744 8.744 0 0 1 -12.353-12.353l21.368-23.4 14.385 14.391z"/><path d="m308.457 334.708a169.262 169.262 0 0 1 -16.936 14.81l9.708 12.718a185.365 185.365 0 0 0 18.542-16.215l148.045-148.045-11.316-11.313z"/><path d="m262.26 367.5 6.968 14.4c5.156-2.494 10.258-5.259 15.164-8.218l-8.263-13.7c-4.487 2.711-9.153 5.24-13.869 7.518z"/><path d="m362.745 133.341-147.078 147.078a24 24 0 0 0 0 33.942 24.028 24.028 0 0 0 33.941 0l147.078-147.078a24 24 0 1 0 -33.941-33.942zm22.628 22.628-147.079 147.078a8.009 8.009 0 0 1 -11.314 0 8 8 0 0 1 0-11.314l147.079-147.078a8 8 0 0 1 11.314 11.314z"/><path d="m405.657 108.371h16v16h-16z" transform="matrix(.707 -.707 .707 .707 38.866 326.576)"/><path d="m82.919 224h83.192l46.311 23.155a8 8 0 0 0 11.578-7.155v-16h13.081a42.967 42.967 0 0 0 42.919-42.919v-106.162a42.967 42.967 0 0 0 -42.919-42.919h-154.162a42.967 42.967 0 0 0 -42.919 42.919v106.162a42.967 42.967 0 0 0 42.919 42.919zm-26.919-149.081a26.95 26.95 0 0 1 26.919-26.919h154.162a26.95 26.95 0 0 1 26.919 26.919v106.162a26.95 26.95 0 0 1 -26.919 26.919h-21.081a8 8 0 0 0 -8 8v11.056l-36.422-18.211a7.994 7.994 0 0 0 -3.578-.845h-85.081a26.95 26.95 0 0 1 -26.919-26.919z"/><path d="m96 72h16v16h-16z"/><path d="m80 104h160v16h-160z"/><path d="m80 136h160v16h-160z"/><path d="m80 168h128v16h-128z"/><path d="m128 72h112v16h-112z"/></svg>