<svg id="Outline" height="512" viewBox="0 0 512 512" width="512" xmlns="http://www.w3.org/2000/svg"><path d="m392 408a24.039 24.039 0 0 0 -17.7-23.154 23.985 23.985 0 0 0 -22.3-32.846h-67.056l-4.2-8.4a42.685 42.685 0 0 0 -73.7-4.588l-14.578 21.867a15.97 15.97 0 0 1 -13.31 7.121h-83.156v-8a8 8 0 0 0 -8-8h-72v16h64v112h-64v16h72a8 8 0 0 0 8-8v-8h94.138a160.41 160.41 0 0 0 69.639 16h68.223a23.985 23.985 0 0 0 22.3-32.846 23.986 23.986 0 0 0 16.324-31.154h1.376a24.028 24.028 0 0 0 24-24zm-40 32a8.009 8.009 0 0 1 -8 8h-72v16h56a8 8 0 0 1 0 16h-68.223a144.292 144.292 0 0 1 -64.2-15.155 7.994 7.994 0 0 0 -3.577-.845h-96v-80h83.156a31.933 31.933 0 0 0 26.625-14.25l14.578-21.867a26.687 26.687 0 0 1 46.073 2.868l.624 1.249h-19.056v16h104a8 8 0 0 1 0 16h-72v16h88a8 8 0 0 1 0 16h-88v16h64a8.009 8.009 0 0 1 8 8z"/><path d="m112 352h16v-80h94.06a31.787 31.787 0 0 0 22.627-9.373l14.81-14.81a26.514 26.514 0 0 1 18.872-7.817h41.631a8 8 0 0 1 0 16h-24a8 8 0 0 0 -7.59 5.472l-.41 1.228a25.266 25.266 0 0 1 -24 17.3v16a41.241 41.241 0 0 0 37.5-24h82.5a8 8 0 0 1 0 16h-64v16h96a8 8 0 0 1 0 16h-96v16h72a8 8 0 0 1 0 16h-8v16h8a23.992 23.992 0 0 0 22.624-32h1.376a24 24 0 0 0 0-48h-9.376a23.992 23.992 0 0 0 -22.624-32h-41.376a23.992 23.992 0 0 0 -22.624-32h-41.631a42.408 42.408 0 0 0 -30.186 12.5l-14.811 14.81a15.889 15.889 0 0 1 -11.312 4.69h-94.06v-8a8 8 0 0 0 -8-8h-104v16h96z"/><path d="m194.659 228.8a32.021 32.021 0 0 1 29.341-44.8 8 8 0 0 0 8-8 32.056 32.056 0 0 1 24-30.987v14.987h16v-120h-16v88.678a48.114 48.114 0 0 0 -39.427 39.9 48.029 48.029 0 0 0 -36.573 66.622z"/><path d="m416 113.013a32.056 32.056 0 0 1 24 30.987 8 8 0 0 0 8 8 32 32 0 0 1 0 64v16a48 48 0 0 0 7.427-95.426 48.114 48.114 0 0 0 -39.427-39.896v-80.678h-16v112h16z"/><path d="m467.2 321.6 9.61 12.8a48.013 48.013 0 0 0 -9.61-82.4l-6.4 14.659a32.012 32.012 0 0 1 6.4 54.945z"/><path d="m304 96h16v88h-16z"/><path d="m352 40h16v88h-16z"/><path d="m376 168h16v40h-16z"/><path d="m424 184h16v16h-16z"/><path d="m424 248h16v16h-16z"/><path d="m256 184h16v16h-16z"/><path d="m304 48h16v16h-16z"/><path d="m440 360h16v16h-16z"/><path d="m432 416h16v16h-16z"/><path d="m384 448h16v16h-16z"/><path d="m489.941 417.941a48.054 48.054 0 0 0 0-67.882l-11.314 11.314a32 32 0 0 1 -7.056 50.581 8 8 0 0 0 -1.6 12.8l.264.249c.128.12.257.238.387.368a32 32 0 0 1 -45.025 45.47 8 8 0 0 0 -11.2 0 31.81 31.81 0 0 1 -22.397 9.159v16a47.676 47.676 0 0 0 28.008-9.016 48.184 48.184 0 0 0 61.933-5.043 48.029 48.029 0 0 0 5.346-61.54q1.373-1.179 2.654-2.46z"/></svg>