<?xml version="1.0"?>
<svg xmlns="http://www.w3.org/2000/svg" id="Outline" viewBox="0 0 512 512" width="512" height="512"><path d="M288,88a32,32,0,0,0-64,0v3.155a61.756,61.756,0,0,0,24,48.934V280h16V140.089a61.756,61.756,0,0,0,24-48.934Zm-16,3.155a45.789,45.789,0,0,1-16,34.827,45.789,45.789,0,0,1-16-34.827V88a16,16,0,0,1,32,0Z"/><path d="M375.945,271.065,363.271,163.33A43.621,43.621,0,0,0,324.6,124.906l-2.821-.313a14.649,14.649,0,0,1-10.4-6.177,14.255,14.255,0,0,1-2.188-11.721A112.78,112.78,0,0,0,312,80c0-35.29-25.122-64-56-64s-56,28.71-56,64a112.766,112.766,0,0,0,2.807,26.694,14.256,14.256,0,0,1-2.188,11.722,14.649,14.649,0,0,1-10.394,6.177l-2.822.313a43.621,43.621,0,0,0-38.674,38.425L136.055,271.065a8,8,0,0,0,2.288,6.592l16,16A8,8,0,0,0,160,296h31.972L177.361,471.336a8,8,0,0,0,2.075,6.07l14.667,16A8,8,0,0,0,200,496h32a8,8,0,0,0,7.933-6.965L256,365.853l16.067,123.182A8,8,0,0,0,280,496h32a8,8,0,0,0,5.9-2.594l14.667-16a8,8,0,0,0,2.075-6.07L320.028,296H352a8,8,0,0,0,5.657-2.343l16-16A8,8,0,0,0,375.945,271.065ZM348.687,280H321.016l6.968-111.5-15.968-1-4.21,67.353L284.8,217.6l-9.6,12.8,31.412,23.559-2.6,41.542a7.92,7.92,0,0,0,.012,1.163L318.4,469.175,308.481,480H287.024L263.933,302.965a8,8,0,0,0-15.866,0L224.976,480H203.519L193.6,469.175l14.375-172.511a7.92,7.92,0,0,0,.012-1.163l-2.6-41.542L236.8,230.4l-9.6-12.8-23.006,17.254-4.21-67.353-15.968,1L190.984,280H163.313L152.4,269.085,164.62,165.2a27.687,27.687,0,0,1,24.549-24.391l2.823-.314a30.56,30.56,0,0,0,26.348-37.636A97.112,97.112,0,0,1,216,80c0-26.468,17.944-48,40-48s40,21.532,40,48a97.07,97.07,0,0,1-2.341,22.86,30.561,30.561,0,0,0,26.35,37.635l2.822.314A27.687,27.687,0,0,1,347.38,165.2L359.6,269.085Z"/><rect x="280" y="152" width="16" height="16"/></svg>
