<svg id="Outline" height="512" viewBox="0 0 512 512" width="512" xmlns="http://www.w3.org/2000/svg"><path d="m488 256a232 232 0 0 0 -396.049-164.049 232 232 0 0 0 328.1 328.1 230.482 230.482 0 0 0 67.949-164.051zm-79.265-152.735q7.493 7.491 14.148 15.573l-34.232 25.674-38.22 7.643a8 8 0 0 0 -5.087 3.407l-32 48a7.984 7.984 0 0 0 -1.3 3.642l-7.518 75.171-28.951 11.58-36.578-65.84a8 8 0 0 0 -2.877-2.975l-36.832-22.1-7.392-44.356a8 8 0 0 0 -5.694-6.377l-51.832-14.807-15.018-48.809a216.042 216.042 0 0 1 289.383 14.574zm-305.47 0c.972-.973 1.959-1.924 2.946-2.876l14.143 45.964a8 8 0 0 0 5.449 5.339l51.137 14.608 7.168 43.012a8 8 0 0 0 3.776 5.545l38.163 22.9 38.96 70.127a8 8 0 0 0 9.964 3.543l40-16a8 8 0 0 0 4.989-6.632l7.8-78.017 29.056-43.585 36.751-7.349a8 8 0 0 0 3.233-1.444l35.805-26.853a214.071 214.071 0 0 1 39.117 113.417l-51.493 51.494-12.229 1.747v-26.1c7.333-6.264 24-23.08 24-46.508 0-18.528-14.355-33.6-32-33.6s-32 15.072-32 33.6c0 23.428 16.667 40.244 24 46.508v28.385l-25.132 3.59a8 8 0 0 0 -6.358 5.111l-23.525 62.73-37.037 44.444-27.948 2.795v-15.174c7.473-6.033 24-21.873 24-43.986a32 32 0 0 0 -64 0c0 22.113 16.527 37.953 24 43.986v16.774l-32.8 3.28a8 8 0 0 0 -6.933 10.022l9.562 35.847a214.138 214.138 0 0 1 -54.778-15.2l7.736-9.726a8 8 0 0 0 1.52-6.843l-5.307-22.172 13.585-34.96a8 8 0 0 0 -.225-6.316l-13.1-27.727 8.487-32.965a8 8 0 0 0 -2.09-7.652l-48-48a8 8 0 0 0 -5.125-2.325l-24.532-1.641v-10.4c7.473-6.033 24-21.873 24-43.986a32 32 0 0 0 -64 0c0 22.113 16.527 37.953 24 43.986v9.329l-47.917-3.191a214.492 214.492 0 0 1 63.182-146.855zm296.735 154.5c-6.092-5.812-16-17.517-16-32.165 0-9.7 7.178-17.6 16-17.6s16 7.9 16 17.6c0 14.652-9.914 26.359-16 32.165zm-135.986 132.013c-6.014-5.353-16.014-16.291-16.014-29.778a16 16 0 0 1 32 0c0 13.56-9.974 24.447-15.986 29.778zm-168-160c-6.014-5.353-16.014-16.291-16.014-29.778a16 16 0 0 1 32 0c0 13.56-9.974 24.447-15.986 29.778zm-55.774 36.388 47.76 3.185v26.649h16v-25.583l20.469 1.365 42.645 42.646-8.071 31.346a8 8 0 0 0 .515 5.414l12.869 27.231-13.244 34.081a8.005 8.005 0 0 0 -.324 4.761l4.983 20.807-7.634 9.6a216.556 216.556 0 0 1 -115.968-181.502zm215.76 205.834c-4.409 0-8.795-.147-13.159-.408l-8.688-32.568 21.847-2.184v19.16h16v-20.76l32.8-3.28a8 8 0 0 0 5.35-2.839l40-48a7.962 7.962 0 0 0 1.344-2.312l22.335-59.56 18.175-2.6v19.351h16v-21.633l17.132-2.447a8 8 0 0 0 4.525-2.263l42.029-42.028a216 216 0 0 1 -215.69 204.371z"/><path d="m272 152.108v55.892h16v-55.892c7.333-6.264 24-23.08 24-46.508 0-18.528-14.355-33.6-32-33.6s-32 15.072-32 33.6c0 23.428 16.667 40.244 24 46.508zm8-64.108c8.822 0 16 7.9 16 17.6 0 14.652-9.914 26.359-16 32.165-6.092-5.812-16-17.517-16-32.165 0-9.7 7.178-17.6 16-17.6z"/><path d="m344 96h16v16h-16z"/><path d="m224 176h16v16h-16z"/><path d="m272 240h16v16h-16z"/><path d="m64 312h16v16h-16z"/><path d="m126.157 346.852a8.983 8.983 0 0 1 -5.7-11.335l5.331-16.112-15.188-5.025-5.332 16.111a25 25 0 0 0 15.864 31.55 8.983 8.983 0 0 1 5.7 11.335l-5.332 16.111 15.189 5.026 5.332-16.112a25 25 0 0 0 -15.864-31.549z"/><path d="m177.293 121.814a24.794 24.794 0 0 0 19.014 1.931 8.97 8.97 0 0 1 11.17 6.016l4.876 16.255 15.326-4.6-4.879-16.253a24.971 24.971 0 0 0 -31.093-16.742 8.97 8.97 0 0 1 -11.17-6.015l-4.877-16.255-15.324 4.6 4.878 16.249a24.8 24.8 0 0 0 12.079 14.814z"/><path d="m396.847 362.341a25 25 0 0 0 -21.408 28.085 8.971 8.971 0 0 1 -7.691 10.09l-16.818 2.269 2.14 15.856 16.818-2.27a25 25 0 0 0 21.412-28.084 8.984 8.984 0 0 1 7.691-10.091l16.818-2.268-2.139-15.856z"/><path d="m483.566 376.422c-.768 1.578-4.355 3.617-7.238 5.257-4.565 2.6-9.739 5.538-12.842 10.612-3.117 5.1-3.377 11.063-3.607 16.325-.145 3.3-.323 7.405-1.36 8.786s-4.947 2.719-8.08 3.783c-4.981 1.691-10.627 3.608-14.638 8.017s-5.392 10.219-6.606 15.34c-.763 3.218-1.713 7.222-3 8.392s-5.354 1.734-8.627 2.189c-5.214.727-11.126 1.549-15.9 5.132s-7.2 9.009-9.356 13.805c-1.357 3.021-3.045 6.782-4.538 7.694-1.469.9-5.569.687-8.863.517-5.262-.27-11.227-.577-16.6 2.041l7.007 14.385c1.666-.813 5.44-.619 8.774-.446 5.783.3 12.339.634 18.03-2.847 5.715-3.494 8.41-9.5 10.787-14.792 1.361-3.029 2.9-6.463 4.362-7.557s5.211-1.625 8.508-2.084c5.741-.8 12.247-1.7 17.189-6.2s6.462-10.894 7.8-16.536c.768-3.237 1.638-6.907 2.874-8.265s4.8-2.565 7.946-3.633c5.493-1.865 11.72-3.98 15.734-9.332s4.293-11.9 4.546-17.689c.146-3.33.311-7.1 1.274-8.678.949-1.552 4.217-3.41 7.1-5.05 5.051-2.872 10.776-6.127 13.714-12.157z"/><path d="m140.058 486.065c-2.6-4.566-5.539-9.741-10.614-12.842-5.1-3.118-11.062-3.378-16.325-3.608-3.3-.144-7.4-.324-8.785-1.36s-2.719-4.946-3.783-8.08c-1.692-4.982-3.609-10.627-8.018-14.638s-10.218-5.392-15.34-6.606c-3.216-.763-7.22-1.712-8.39-3s-1.734-5.355-2.19-8.627c-.726-5.215-1.55-11.127-5.132-15.9s-9.009-7.2-13.8-9.358c-3.022-1.356-6.782-3.045-7.694-4.536-.9-1.47-.687-5.569-.518-8.862.271-5.264.578-11.23-2.042-16.605l-14.383 7.01c.812 1.665.617 5.441.446 8.772-.3 5.783-.633 12.337 2.846 18.03 3.493 5.715 9.5 8.41 14.792 10.788 3.029 1.36 6.463 2.9 7.559 4.362s1.625 5.211 2.084 8.509c.8 5.74 1.706 12.245 6.2 17.186s10.893 6.463 16.535 7.8c3.237.768 6.906 1.638 8.265 2.873s2.565 4.8 3.633 7.947c1.866 5.493 3.979 11.719 9.332 15.735s11.9 4.293 17.688 4.546c3.329.145 7.1.31 8.68 1.274 1.551.948 3.41 4.217 5.049 7.1 2.872 5.049 6.127 10.773 12.156 13.712l7.009-14.383c-1.581-.769-3.618-4.357-5.26-7.239z"/><path d="m371.942 25.935c2.6 4.566 5.539 9.741 10.614 12.842 5.1 3.118 11.062 3.378 16.325 3.608 3.3.144 7.4.324 8.785 1.36s2.719 4.946 3.783 8.08c1.692 4.982 3.609 10.627 8.018 14.638s10.218 5.392 15.34 6.606c3.216.763 7.22 1.712 8.39 3s1.734 5.355 2.19 8.627c.726 5.215 1.55 11.127 5.132 15.9s9.009 7.2 13.805 9.358c3.022 1.356 6.782 3.045 7.694 4.536.9 1.47.687 5.569.518 8.862-.271 5.264-.578 11.23 2.042 16.605l14.383-7.01c-.812-1.665-.617-5.441-.446-8.772.3-5.783.633-12.337-2.846-18.03-3.493-5.715-9.5-8.41-14.792-10.788-3.029-1.36-6.463-2.9-7.559-4.362s-1.625-5.211-2.084-8.509c-.8-5.74-1.706-12.245-6.2-17.186s-10.894-6.461-16.534-7.8c-3.237-.768-6.906-1.638-8.265-2.873s-2.565-4.8-3.633-7.947c-1.866-5.493-3.979-11.719-9.332-15.735s-11.9-4.293-17.688-4.546c-3.329-.145-7.1-.31-8.68-1.274-1.551-.948-3.41-4.217-5.049-7.1-2.872-5.049-6.127-10.773-12.156-13.712l-7.011 14.387c1.577.765 3.614 4.353 5.256 7.235z"/><path d="m35.672 130.321c4.565-2.595 9.739-5.538 12.842-10.612 3.117-5.1 3.377-11.063 3.607-16.325.145-3.3.323-7.405 1.36-8.786s4.947-2.719 8.08-3.783c4.981-1.691 10.627-3.608 14.639-8.015s5.392-10.219 6.606-15.34c.763-3.218 1.713-7.222 3-8.392s5.354-1.734 8.627-2.189c5.214-.727 11.126-1.549 15.9-5.132s7.2-9.009 9.356-13.8c1.357-3.021 3.045-6.782 4.538-7.694 1.47-.9 5.571-.685 8.863-.517 5.263.27 11.226.577 16.6-2.041l-7.003-14.395c-1.667.812-5.442.617-8.774.446-5.783-.295-12.339-.634-18.03 2.847-5.715 3.494-8.41 9.5-10.787 14.792-1.361 3.029-2.9 6.463-4.362 7.557s-5.211 1.625-8.508 2.084c-5.741.8-12.247 1.7-17.189 6.2s-6.462 10.894-7.8 16.536c-.768 3.238-1.637 6.911-2.874 8.269s-4.8 2.565-7.946 3.633c-5.493 1.865-11.717 3.98-15.734 9.336s-4.293 11.9-4.546 17.689c-.146 3.33-.311 7.1-1.274 8.678-.949 1.552-4.217 3.41-7.1 5.05-5.051 2.872-10.776 6.127-13.714 12.157l14.385 7.008c.766-1.582 4.355-3.621 7.238-5.261z"/></svg>