<svg id="Outline" height="512" viewBox="0 0 512 512" width="512" xmlns="http://www.w3.org/2000/svg"><path d="m435.831 184.276-123.326-67.268a117.528 117.528 0 0 0 -113.009 0l-123.327 67.268a8 8 0 0 0 -4.169 7.024v176a8 8 0 0 0 4.169 7.023l123.331 67.269a117.53 117.53 0 0 0 113.009 0l123.327-67.269a8 8 0 0 0 4.164-7.023v-176a8 8 0 0 0 -4.169-7.024zm-11.831 178.275-119.157 64.994a101.583 101.583 0 0 1 -97.686 0l-119.157-64.994v-166.5l119.157-64.994a101.583 101.583 0 0 1 97.686 0l119.157 64.992z"/><path d="m117.205 340.3h-13.205v8a8 8 0 0 0 4.169 7.023l7.023 3.831 6.324-11.592a4.911 4.911 0 0 0 -.089-4.859 4.91 4.91 0 0 0 -4.222-2.403z"/><path d="m104 270.585h16v17.43h-16z"/><path d="m104 235.726h16v17.43h-16z"/><path d="m104 305.444h16v17.43h-16z"/><path d="m108.169 203.272a8 8 0 0 0 -4.169 7.028v8h13.2a4.911 4.911 0 0 0 4.222-2.4 4.909 4.909 0 0 0 .089-4.858l-6.324-11.593z"/><path d="m290.538 159.7 7.656-14.049-1.012-.551a85.868 85.868 0 0 0 -15.078-6.438l-4.851 15.246a70.107 70.107 0 0 1 12.269 5.238z"/><path d="m263.175 150.972 1.651-15.914a85.788 85.788 0 0 0 -17.667 0l1.653 15.914a69.715 69.715 0 0 1 14.363 0z"/><path d="m132.129 186.941h16.044v16h-16.044z" transform="matrix(.878 -.479 .479 .878 -76.23 90.905)"/><path d="m188.471 156.209h16.045v16.001h-16.045z" transform="matrix(.878 -.479 .479 .878 -54.64 114.144)"/><path d="m222.48 159.147a69.97 69.97 0 0 1 12.254-5.232l-4.854-15.246a85.948 85.948 0 0 0 -15.061 6.432l-1.028.56 7.661 14.047z"/><path d="m160.3 171.575h16.045v16h-16.045z" transform="matrix(.878 -.479 .479 .878 -65.433 102.518)"/><path d="m335.665 171.545h16v16.045h-16z" transform="matrix(.479 -.878 .878 .479 21.466 395.295)"/><path d="m363.837 186.912h16v16.044h-16z" transform="matrix(.479 -.878 .878 .479 22.655 428.03)"/><path d="m307.494 156.18h16v16.044h-16z" transform="matrix(.479 -.878 .878 .479 20.275 362.558)"/><path d="m394.8 218.3h13.2v-8a8 8 0 0 0 -4.169-7.024l-7.023-3.831-6.324 11.593a4.909 4.909 0 0 0 .089 4.858 4.911 4.911 0 0 0 4.227 2.404z"/><path d="m392 305.444h16v17.43h-16z"/><path d="m392 270.585h16v17.43h-16z"/><path d="m392 235.726h16v17.43h-16z"/><path d="m403.831 355.327a8 8 0 0 0 4.169-7.027v-8h-13.2a4.91 4.91 0 0 0 -4.222 2.4 4.911 4.911 0 0 0 -.089 4.859l6.324 11.592z"/><path d="m363.827 355.659h16.044v16h-16.044z" transform="matrix(.878 -.479 .479 .878 -128.728 222.443)"/><path d="m132.164 355.643h16v16.044h-16z" transform="matrix(.479 -.878 .878 .479 -246.215 312.58)"/><path d="m307.484 386.39h16.045v16.001h-16.045z" transform="matrix(.878 -.479 .479 .878 -150.332 199.242)"/><path d="m221.462 398.9-7.656 14.049 1.012.552a86.019 86.019 0 0 0 15.078 6.438l4.851-15.247a70.032 70.032 0 0 1 -12.269-5.238z"/><path d="m248.825 407.628-1.652 15.914a85.24 85.24 0 0 0 17.668 0l-1.653-15.914a69.785 69.785 0 0 1 -14.363 0z"/><path d="m289.52 399.452a69.974 69.974 0 0 1 -12.254 5.233l4.854 15.246a86.1 86.1 0 0 0 15.061-6.432l1.028-.561-7.661-14.046z"/><path d="m335.655 371.025h16.045v16h-16.045z" transform="matrix(.878 -.479 .479 .878 -139.525 210.83)"/><path d="m160.334 371.009h16.001v16.045h-16.001z" transform="matrix(.479 -.878 .878 .479 -245.021 345.298)"/><path d="m188.505 386.375h16v16.044h-16z" transform="matrix(.479 -.878 .878 .479 -243.831 378.059)"/><path d="m297.181 226.5a86 86 0 0 0 -82.362 0l-82.65 45.081 7.662 14.047 82.649-45.081a70 70 0 0 1 67.04 0l82.649 45.081 7.662-14.047z"/><path d="m256 176a86.243 86.243 0 0 0 -41.181 10.5l-34.65 18.9 7.662 14.047 34.649-18.9a70 70 0 0 1 67.04 0l34.649 18.9 7.662-14.047-34.65-18.9a86.237 86.237 0 0 0 -41.181-10.5z"/><path d="m256 256a86.243 86.243 0 0 0 -41.181 10.5l-82.65 45.081 7.662 14.047 82.649-45.081a70 70 0 0 1 67.04 0l82.649 45.081 7.662-14.047-82.65-45.081a86.237 86.237 0 0 0 -41.181-10.5z"/><path d="m52.424 87.3a19.6 19.6 0 0 1 19.576 19.575v52.425h16v-52.425a35.576 35.576 0 1 0 -71.135 1.078l6.343 209.319a51.934 51.934 0 0 0 28.718 44.935l.493.247 7.162-14.308-.5-.249a35.952 35.952 0 0 1 -19.881-31.109l-6.343-209.319a19.577 19.577 0 0 1 19.567-20.169z"/><path d="m485.11 82.1a35.576 35.576 0 0 0 -61.11 24.775v52.425h16v-52.425a19.576 19.576 0 1 1 39.143.594l-6.343 209.319a35.952 35.952 0 0 1 -19.886 31.11l-.494.248 7.162 14.308.49-.246a51.933 51.933 0 0 0 28.721-44.936l6.343-209.319a35.284 35.284 0 0 0 -10.026-25.853z"/><path d="m242.1 313.711a57.512 57.512 0 0 1 27.792 0l64.164 16.041 3.88-15.522-64.164-16.041a73.543 73.543 0 0 0 -35.552 0l-56.2 14.051 3.881 15.522z"/><path d="m321.94 352.239-48.164-12.039a73.507 73.507 0 0 0 -35.552 0l-48.164 12.039 3.88 15.522 48.16-12.041a57.512 57.512 0 0 1 27.792 0l48.164 12.041z"/></svg>