<svg id="airplane-death" enable-background="new 0 0 300 300" height="512" viewBox="0 0 300 300" width="512" xmlns="http://www.w3.org/2000/svg"><g><path d="m266.697 85.441c-10.711-9.75-26.453-12.686-40.113-7.467l-19.431 7.421c-.159-.099-.276-.242-.452-.32l-29.508-13.039c-12.973-4.871-27.363-5.18-40.535-.875l-17.275 5.645c-1.461.479-2.518 1.75-2.723 3.271-.203 1.523.482 3.027 1.766 3.873l33.975 22.357-45.242 17.28c-8.451-7.441-19.941-9.908-30.592-6.428l-5.557 1.814c-1.234.404-2.197 1.381-2.58 2.623s-.139 2.592.654 3.621l17.274 22.423c-19.886 11.881-33.274 33.559-33.274 58.36 0 37.496 30.504 68 68 68s68-30.504 68-68c0-13.045-3.757-25.2-10.151-35.563l20.978-33.859c.246-.042.493-.028.735-.119 29.305-10.977 53.598-23.434 64.672-30.91 3.25-2.193 5.277-5.703 5.562-9.631.29-3.973-1.237-7.793-4.183-10.477zm-105.234 17.252-31.703-20.861 9.383-3.064c11.449-3.742 23.961-3.471 35.027.672l22.515 9.955-35.111 13.41c-.043-.033-.065-.082-.111-.112zm-40.379 163.307c-33.084 0-60-26.916-60-60s26.916-60 60-60c33.086 0 60 26.916 60 60s-26.914 60-60 60zm139.758-167.08c-9.551 6.448-29.462 16.792-54.074 26.591l7.414-11.966c1.164-1.879.586-4.344-1.293-5.508s-4.344-.582-5.504 1.293l-33.444 53.98c-3.353-4.143-7.202-7.849-11.423-11.107l7.363-24.732c.633-2.117-.574-4.344-2.691-4.975-2.125-.633-4.344.58-4.973 2.693l-4.976 16.714c-2.802.728-5.605 1.43-8.409 2.078-8.485-3.812-17.859-5.981-27.748-5.981-9.802 0-19.103 2.127-27.53 5.876l-14.677-19.054.174-.057c8.566-2.807 17.869-.408 24.303 6.24 1.113 1.152 2.807 1.525 4.303.955l121.779-46.514c.232-.088.474-.131.707-.214l-2.715 3.862c-1.27 1.809-.836 4.303.973 5.574.699.49 1.504.727 2.297.727 1.258 0 2.496-.592 3.277-1.699l7.187-10.225c7.377.152 14.616 2.843 20.149 7.883 1.121 1.021 1.699 2.475 1.59 3.984-.106 1.465-.856 2.769-2.059 3.582z"/><path d="m99.084 82c7.719 0 14-6.281 14-14 0-7.041-5.225-12.885-12-13.857 0-.047 0-.096 0-.143 0-15.439-12.561-28-28-28-14.082 0-25.77 10.449-27.715 24.002-8.945-.277-16.285 7.08-16.285 15.998 0 8.822 7.178 16 16 16zm-62-16c0-4.412 3.588-8 8-8 .85 0 1.729.168 2.689.512 1.242.439 2.629.244 3.703-.531 1.07-.779 1.686-2.037 1.645-3.359-.002-.055-.033-.566-.037-.621 0-11.027 8.973-20 20-20s20 8.973 20 20c0 1.16-.113 2.34-.344 3.605-.246 1.336.205 2.705 1.195 3.637.988.932 2.395 1.293 3.703.965.571-.142 1.03-.208 1.446-.208 3.309 0 6 2.691 6 6s-2.691 6-6 6h-54c-4.412 0-8-3.588-8-8z"/><path d="m215.057 66h.027c7.703 0 13.984-6.264 14-13.975.008-3.738-1.441-7.258-4.082-9.906-2.637-2.65-6.152-4.113-9.891-4.119-.008 0-.016 0-.027 0-7.703 0-13.984 6.264-14 13.975-.008 3.738 1.441 7.258 4.082 9.906 2.637 2.65 6.153 4.113 9.891 4.119zm.027-20c1.742.07 3.117.627 4.25 1.766 1.133 1.135 1.754 2.643 1.75 4.244-.008 3.305-2.699 5.99-6 5.99-1.469.111-3.117-.627-4.25-1.766-1.133-1.135-1.754-2.643-1.75-4.244.008-3.304 2.699-5.99 6-5.99z"/><path d="m215.112 226c-.008 0-.016 0-.027 0-7.703 0-13.984 6.264-14 13.975-.008 3.738 1.441 7.258 4.082 9.906 2.637 2.65 6.152 4.113 9.891 4.119h.027c7.703 0 13.984-6.264 14-13.975.008-3.738-1.441-7.258-4.082-9.906-2.638-2.65-6.153-4.113-9.891-4.119zm-.028 20c-1.469-.049-3.117-.625-4.25-1.766-1.133-1.135-1.754-2.643-1.75-4.244.008-3.305 2.699-5.99 6-5.99 1.742-.09 3.117.627 4.25 1.766 1.133 1.135 1.754 2.643 1.75 4.244-.008 3.304-2.699 5.99-6 5.99z"/><path d="m106.779 100.598c.344 2.478 2.632 4.207 5.11 3.862 2.478-.344 4.207-2.632 3.863-5.11s-2.632-4.207-5.11-3.862-4.208 2.633-3.863 5.11z"/><path d="m159.889 44.461c2.478-.344 4.207-2.632 3.863-5.11s-2.632-4.207-5.11-3.862c-2.478.344-4.207 2.632-3.862 5.11.343 2.477 2.631 4.206 5.109 3.862z"/><path d="m55.426 112.422-4.512-4.529 4.527-4.51c1.566-1.559 1.57-4.092.012-5.656-1.561-1.568-4.096-1.568-5.656-.012l-4.529 4.512-4.51-4.527c-1.559-1.568-4.094-1.568-5.656-.012-1.566 1.559-1.57 4.092-.012 5.656l4.512 4.529-4.527 4.51c-1.566 1.559-1.57 4.092-.012 5.656.781.785 1.809 1.178 2.834 1.178 1.021 0 2.043-.389 2.822-1.166l4.529-4.512 4.51 4.527c.781.785 1.809 1.178 2.834 1.178 1.021 0 2.043-.389 2.822-1.166 1.567-1.558 1.571-4.092.012-5.656z"/><path d="m121.084 154c-28.674 0-52 23.326-52 52s23.326 52 52 52c28.672 0 52-23.326 52-52s-23.328-52-52-52zm0 96c-24.262 0-44-19.738-44-44s19.738-44 44-44 44 19.738 44 44-19.738 44-44 44z"/><path d="m121.084 166c-19.85 0-36 13.457-36 30 0 8.631 4.346 16.678 12 22.365v19.635c0 2.209 1.791 4 4 4h40c2.211 0 4-1.791 4-4v-19.635c7.656-5.688 12-13.734 12-22.365 0-16.543-16.148-30-36-30zm17.817 46.928c-1.133.74-1.816 2-1.816 3.352v17.72h-4v-8h-8v8h-8v-8h-8v8h-4v-17.721c0-1.352-.684-2.611-1.814-3.352-6.473-4.219-10.186-10.391-10.186-16.928 0-12.131 12.561-22 28-22s28 9.869 28 22c-.001 6.538-3.712 12.71-10.184 16.929z"/><circle cx="133.084" cy="198" r="8"/><circle cx="109.084" cy="198" r="8"/></g></svg>